<svg xmlns="http://www.w3.org/2000/svg" xmlns:xlink="http://www.w3.org/1999/xlink" version="1.1" id="Your_Icon" x="0px" y="0px" width="100px" height="100px" viewBox="0 0 100 100" enable-background="new 0 0 100 100" xml:space="preserve">
<path d="M79.912,65.561l-16.271-9.292c0.603-1.532,0.947-3.19,0.972-4.929l28.259-0.87l-28.338-0.872  c-0.089-0.802-0.251-1.581-0.468-2.337l18.408-8.406l-18.818,7.201c-0.612-1.572-1.499-3.004-2.603-4.244l17.601-18.914  l-18.92,17.607c-0.754-0.651-1.569-1.23-2.448-1.711l9.63-20.826L56.023,38.182c-1.196-0.506-2.479-0.842-3.814-1l-1.287-28.95  l-1.284,28.891c-0.946,0.062-1.864,0.216-2.75,0.456L38.244,18.63l7.408,19.347c-1.183,0.443-2.29,1.037-3.298,1.765L25.161,23.707  L41.082,40.78c-1.531,1.402-2.755,3.129-3.549,5.082L20.39,37.94l16.738,9.028c-0.335,1.075-0.526,2.21-0.592,3.378L7.622,51.331  l28.933,0.985c0.072,0.871,0.229,1.717,0.453,2.536L15.294,65.292l22.574-8.129c0.676,1.419,1.572,2.712,2.661,3.821L27.65,74.765  l13.812-12.913c0.596,0.507,1.238,0.959,1.913,1.362L30.733,90.316l14.083-26.346c1.124,0.505,2.325,0.859,3.58,1.055l-0.608,22.008  L49.97,65.18c0.196,0.008,0.39,0.029,0.588,0.029c1.568,0,3.072-0.27,4.481-0.745l10.156,26.973L57.304,63.48  c1.055-0.58,2.02-1.298,2.889-2.117L77.62,77.888L61.082,60.442c0.63-0.712,1.189-1.485,1.666-2.313L79.912,65.561z M50.558,64.209  c-7.203,0-13.062-5.861-13.062-13.066c0-7.205,5.86-13.066,13.062-13.066c7.204,0,13.065,5.861,13.065,13.066  C63.623,58.348,57.762,64.209,50.558,64.209z"/>
</svg>