<svg xmlns="http://www.w3.org/2000/svg" xmlns:xlink="http://www.w3.org/1999/xlink" version="1.1" x="0px" y="0px" width="100px" height="100px" viewBox="0 0 100 100" enable-background="new 0 0 100 100" xml:space="preserve">
<g id="Captions">
</g>
<g id="Your_Icon">
	<path d="M86.502,53.356L97.5,42.362L86.502,31.364L75.508,42.362L47.92,14.778l2.201-2.201L45.083,7.54l-2.198,2.198l-3.73-3.725   L2.5,42.669l51.32,51.317l36.656-36.659L86.502,53.356z M36.399,20.024c-1.085-1.085-1.085-2.841,0-3.929   c1.085-1.083,2.844-1.085,3.927,0c1.088,1.086,1.088,2.844,0.005,3.929C39.243,21.11,37.484,21.11,36.399,20.024z M41.637,25.26   c-1.081-1.081-1.081-2.841,0-3.925c1.083-1.085,2.841-1.085,3.927,0c1.085,1.084,1.085,2.844,0.004,3.925   C44.482,26.345,42.72,26.345,41.637,25.26z M34.512,61.975c-4.827-4.833-4.824-12.647,0-17.474c4.826-4.824,12.645-4.829,17.474,0   c4.824,4.824,4.824,12.647,0.002,17.474C47.161,66.799,39.336,66.794,34.512,61.975z M46.937,73.479   c-0.777-0.776-0.777-2.029,0-2.807c0.772-0.77,2.026-0.77,2.799,0.005c0.771,0.772,0.774,2.025,0,2.802   C48.963,74.251,47.706,74.251,46.937,73.479z M86.386,49.445l-6.963-6.967l6.963-6.96l6.965,6.96L86.386,49.445z"/>
</g>
</svg>